<?xml version="1.0" standalone="no"?>
<!DOCTYPE svg PUBLIC "-//W3C//DTD SVG 20010904//EN"
 "http://www.w3.org/TR/2001/REC-SVG-20010904/DTD/svg10.dtd">
<svg version="1.0" xmlns="http://www.w3.org/2000/svg"
 width="1002.000000pt" height="622.000000pt" viewBox="0 0 1002.000000 622.000000"
 preserveAspectRatio="xMidYMid meet">

<g transform="translate(0.000000,622.000000) scale(0.100000,-0.100000)"
fill="#000000" stroke="none">
<path d="M6089 5313 c-96 -99 -172 -193 -248 -307 -100 -150 -164 -256 -158
-262 2 -3 17 17 32 43 56 96 189 290 260 378 86 108 176 207 182 202 2 -3 22
-112 44 -243 21 -132 42 -250 45 -264 4 -20 3 -23 -7 -12 -18 17 -64 15 -104
-4 -74 -35 -199 -162 -332 -339 -133 -177 -401 -594 -514 -802 -19 -35 -36
-63 -39 -63 -3 0 -23 37 -44 82 -109 226 -240 355 -341 336 -22 -5 -23 -3 -13
16 19 36 220 391 224 395 20 22 105 -148 175 -351 26 -76 51 -139 56 -139 4
-1 35 61 69 137 77 175 176 379 249 513 l57 104 -164 -6 c-174 -6 -297 -26
-437 -74 -102 -34 -285 -122 -357 -171 -236 -160 -332 -362 -262 -549 62 -169
306 -287 616 -300 l133 -6 15 -28 c18 -36 25 -36 47 0 14 24 25 30 70 35 152
19 353 70 481 121 17 8 18 1 15 -137 -3 -101 -8 -150 -17 -161 -8 -9 -33 -19
-57 -22 -79 -12 -139 -67 -170 -154 -19 -55 -19 -84 0 -121 21 -40 45 -51 134
-61 45 -5 81 -15 90 -24 14 -14 17 -79 21 -500 5 -469 6 -484 26 -512 39 -54
76 -64 209 -61 131 3 158 12 192 65 16 25 18 71 23 515 3 325 9 491 16 498 6
6 51 14 100 19 49 4 104 16 122 25 19 10 36 15 40 12 3 -3 -7 -45 -21 -93 -42
-138 -51 -198 -50 -348 0 -165 20 -252 85 -385 80 -161 245 -295 409 -330 93
-20 240 -9 336 25 l82 29 53 -19 c41 -16 78 -20 168 -20 133 0 176 15 211 71
11 19 24 34 28 34 3 0 33 -20 66 -44 152 -114 221 -125 357 -57 165 83 280
192 325 308 13 34 18 75 18 138 0 129 -28 182 -190 359 -94 103 -125 143 -125
163 0 33 56 86 154 146 82 49 111 90 102 141 -9 49 -35 77 -131 142 -72 49
-93 58 -139 62 -46 4 -65 -1 -120 -26 -81 -38 -167 -96 -238 -161 -31 -28 -61
-51 -67 -51 -11 0 -16 17 -26 92 -8 59 -43 104 -93 118 -50 14 -203 13 -273
-2 -53 -11 -64 -10 -148 16 -118 36 -223 43 -329 22 -133 -27 -213 -69 -319
-169 l-53 -50 0 55 c0 104 -52 138 -210 138 -151 0 -140 -29 -140 363 0 298 2
326 20 375 14 36 20 76 20 131 0 67 -4 86 -31 139 -38 76 -104 136 -207 188
-43 21 -79 39 -82 41 -9 7 86 82 132 104 50 23 47 23 109 -9 13 -6 0 119 -35
333 -43 261 -46 275 -55 275 -3 0 -36 -30 -72 -67z m1177 -2258 c93 -27 128
-87 145 -247 25 -222 -4 -369 -81 -413 -49 -28 -207 -29 -263 -1 -78 39 -117
140 -117 306 0 193 64 321 177 357 52 16 81 15 139 -2z m740 -458 c118 -119
136 -152 110 -193 -14 -20 -193 -146 -229 -160 -23 -8 -27 26 -27 231 0 196 4
235 24 235 6 0 61 -51 122 -113z"/>
<path d="M2348 4471 c-51 -11 -82 -34 -102 -75 -15 -32 -16 -130 -16 -1162 0
-1058 1 -1128 17 -1157 38 -64 61 -72 207 -72 144 0 167 7 203 62 17 25 18 97
21 1157 2 1122 2 1129 -18 1172 -29 58 -70 76 -185 80 -49 2 -106 -1 -127 -5z"/>
<path d="M3258 3465 c-194 -44 -328 -156 -418 -348 -118 -253 -118 -564 2
-807 80 -161 245 -295 409 -330 93 -20 240 -9 336 25 l83 29 47 -18 c62 -23
203 -32 273 -17 30 6 69 23 86 36 35 27 59 32 70 14 3 -6 25 -20 48 -30 59
-27 224 -26 283 0 77 36 77 35 84 461 3 221 10 388 16 406 32 93 79 139 181
178 109 42 132 61 180 154 47 92 52 131 22 179 -29 49 -83 60 -188 39 -45 -9
-111 -28 -147 -43 l-64 -26 -38 26 c-59 40 -87 47 -191 47 -98 0 -140 -12
-198 -55 -20 -15 -24 -14 -52 10 -17 15 -46 30 -64 36 -46 13 -201 11 -269 -3
-53 -11 -64 -10 -146 16 -110 35 -247 43 -345 21z m268 -410 c93 -27 128 -87
145 -247 25 -222 -4 -369 -81 -413 -49 -28 -207 -29 -263 -1 -78 39 -117 140
-117 306 0 193 64 321 177 357 52 16 81 15 139 -2z"/>
<path d="M1640 3445 c-266 -54 -439 -219 -512 -485 -20 -74 -23 -107 -22 -250
1 -137 4 -179 23 -245 70 -258 223 -414 471 -482 91 -25 322 -25 402 0 98 30
157 101 142 171 -10 48 -69 158 -101 188 -43 41 -73 48 -178 41 -152 -10 -217
28 -265 154 -30 76 -34 249 -8 333 43 138 146 202 292 181 78 -11 121 0 163
41 39 38 103 159 103 195 0 108 -133 174 -345 172 -55 -1 -129 -7 -165 -14z"/>
<path d="M5125 3420 c-23 -11 -50 -35 -60 -52 -19 -32 -20 -54 -20 -643 0
-693 -3 -665 79 -705 59 -28 250 -29 313 -1 82 38 78 5 78 701 0 696 4 663
-78 701 -62 28 -255 27 -312 -1z"/>
</g>
</svg>
